<svg width="961" height="828" xmlns="http://www.w3.org/2000/svg" xmlns:xlink="http://www.w3.org/1999/xlink" xml:space="preserve" overflow="hidden"><defs><clipPath id="clip0"><rect x="1814" y="1548" width="961" height="828"/></clipPath></defs><g clip-path="url(#clip0)" transform="translate(-1814 -1548)"><path d="M2544.5 1820.5C2544.5 1960.78 2431 2074.5 2291 2074.5 2151 2074.5 2037.5 1960.78 2037.5 1820.5 2037.5 1680.22 2151 1566.5 2291 1566.5 2431 1566.5 2544.5 1680.22 2544.5 1820.5Z" stroke="#000000" stroke-width="36.6667" stroke-miterlimit="8" fill="none" fill-rule="evenodd"/><path d="M1832.5 2331.17C1832.5 2214.82 2039.34 2120.5 2294.5 2120.5 2549.66 2120.5 2756.5 2214.82 2756.5 2331.17 2679.5 2366.28 1909.5 2366.28 1832.5 2331.17Z" stroke="#000000" stroke-width="36.6667" stroke-miterlimit="8" fill="none" fill-rule="evenodd"/><path d="M384.522 43.0492 345.151 82.4198 314.043 74.157 306.267 43.5353 345.637 4.16461C322.307-4.58465 296.059 0.762118 277.589 17.2882 259.119 34.3003 251.828 59.5752 258.147 83.878L10.2569 331.768C1.50798 340.031-1.89451 352.669 1.02191 364.334 3.93799 375.999 13.1733 385.235 24.8387 388.151 36.504 391.067 48.6554 387.665 57.4046 378.916L305.294 131.026C329.597 137.345 354.872 130.054 371.884 111.583 388.41 93.1134 393.757 66.3799 384.522 43.0492Z" stroke="#000000" stroke-width="20.625" stroke-miterlimit="8" fill="none" fill-rule="evenodd" transform="matrix(-0.707884 0.706328 0.706328 0.707884 2279.53 1975.17)"/></g></svg>