<svg width="1679" height="1565" xmlns="http://www.w3.org/2000/svg" xmlns:xlink="http://www.w3.org/1999/xlink" xml:space="preserve" overflow="hidden"><g transform="translate(-1361 -275)"><rect x="1364.5" y="278.5" width="1672" height="1558" stroke="#000000" stroke-width="6.875" stroke-miterlimit="8" fill="#D1D1D1"/><path d="M1859.5 1399.5C1859.5 1263.64 1969.64 1153.5 2105.5 1153.5 2241.36 1153.5 2351.5 1263.64 2351.5 1399.5 2351.5 1535.36 2241.36 1645.5 2105.5 1645.5 1969.64 1645.5 1859.5 1535.36 1859.5 1399.5Z" stroke="#000000" stroke-width="6.875" stroke-miterlimit="8" fill="#D1D1D1" fill-rule="evenodd"/><path d="M2268.5 1179C2268.5 1129.02 2307 1088.5 2354.5 1088.5 2402 1088.5 2440.5 1129.02 2440.5 1179 2440.5 1228.98 2402 1269.5 2354.5 1269.5 2307 1269.5 2268.5 1228.98 2268.5 1179Z" stroke="#000000" stroke-width="6.875" stroke-miterlimit="8" fill="#D1D1D1" fill-rule="evenodd"/><path d="M2229.5 1200.5C2229.5 1183.38 2242.71 1169.5 2259 1169.5 2275.29 1169.5 2288.5 1183.38 2288.5 1200.5 2288.5 1217.62 2275.29 1231.5 2259 1231.5 2242.71 1231.5 2229.5 1217.62 2229.5 1200.5Z" stroke="#000000" stroke-width="6.875" stroke-miterlimit="8" fill="#D1D1D1" fill-rule="evenodd"/><path d="M2417.5 1196C2417.5 1178.6 2430.71 1164.5 2447 1164.5 2463.29 1164.5 2476.5 1178.6 2476.5 1196 2476.5 1213.4 2463.29 1227.5 2447 1227.5 2430.71 1227.5 2417.5 1213.4 2417.5 1196Z" stroke="#000000" stroke-width="6.875" stroke-miterlimit="8" fill="#D1D1D1" fill-rule="evenodd"/><path d="M1889.5 1238C1889.5 1220.6 1902.71 1206.5 1919 1206.5 1935.29 1206.5 1948.5 1220.6 1948.5 1238 1948.5 1255.4 1935.29 1269.5 1919 1269.5 1902.71 1269.5 1889.5 1255.4 1889.5 1238Z" stroke="#000000" stroke-width="6.875" stroke-miterlimit="8" fill="#D1D1D1" fill-rule="evenodd"/><path d="M2051.5 1152.5C2051.5 1135.38 2064.71 1121.5 2081 1121.5 2097.29 1121.5 2110.5 1135.38 2110.5 1152.5 2110.5 1169.62 2097.29 1183.5 2081 1183.5 2064.71 1183.5 2051.5 1169.62 2051.5 1152.5Z" stroke="#000000" stroke-width="6.875" stroke-miterlimit="8" fill="#D1D1D1" fill-rule="evenodd"/><path d="M1830.5 1409.5C1830.5 1392.38 1843.71 1378.5 1860 1378.5 1876.29 1378.5 1889.5 1392.38 1889.5 1409.5 1889.5 1426.62 1876.29 1440.5 1860 1440.5 1843.71 1440.5 1830.5 1426.62 1830.5 1409.5Z" stroke="#000000" stroke-width="6.875" stroke-miterlimit="8" fill="#D1D1D1" fill-rule="evenodd"/><path d="M1898.5 1576C1898.5 1558.6 1911.93 1544.5 1928.5 1544.5 1945.07 1544.5 1958.5 1558.6 1958.5 1576 1958.5 1593.4 1945.07 1607.5 1928.5 1607.5 1911.93 1607.5 1898.5 1593.4 1898.5 1576Z" stroke="#000000" stroke-width="6.875" stroke-miterlimit="8" fill="#D1D1D1" fill-rule="evenodd"/><path d="M2092.5 1637C2092.5 1619.6 2105.93 1605.5 2122.5 1605.5 2139.07 1605.5 2152.5 1619.6 2152.5 1637 2152.5 1654.4 2139.07 1668.5 2122.5 1668.5 2105.93 1668.5 2092.5 1654.4 2092.5 1637Z" stroke="#000000" stroke-width="6.875" stroke-miterlimit="8" fill="#D1D1D1" fill-rule="evenodd"/><path d="M2303.5 1569C2303.5 1510.73 2348.27 1463.5 2403.5 1463.5 2458.73 1463.5 2503.5 1510.73 2503.5 1569 2503.5 1627.27 2458.73 1674.5 2403.5 1674.5 2348.27 1674.5 2303.5 1627.27 2303.5 1569Z" stroke="#000000" stroke-width="6.875" stroke-miterlimit="8" fill="#D1D1D1" fill-rule="evenodd"/><path d="M2282.5 1531.5C2282.5 1514.38 2295.71 1500.5 2312 1500.5 2328.29 1500.5 2341.5 1514.38 2341.5 1531.5 2341.5 1548.62 2328.29 1562.5 2312 1562.5 2295.71 1562.5 2282.5 1548.62 2282.5 1531.5Z" stroke="#000000" stroke-width="6.875" stroke-miterlimit="8" fill="#D1D1D1" fill-rule="evenodd"/><path d="M2456.5 1513.5C2456.5 1496.38 2469.71 1482.5 2486 1482.5 2502.29 1482.5 2515.5 1496.38 2515.5 1513.5 2515.5 1530.62 2502.29 1544.5 2486 1544.5 2469.71 1544.5 2456.5 1530.62 2456.5 1513.5Z" stroke="#000000" stroke-width="6.875" stroke-miterlimit="8" fill="#D1D1D1" fill-rule="evenodd"/><path d="M2420.5 1650.5C2420.5 1633.38 2433.93 1619.5 2450.5 1619.5 2467.07 1619.5 2480.5 1633.38 2480.5 1650.5 2480.5 1667.62 2467.07 1681.5 2450.5 1681.5 2433.93 1681.5 2420.5 1667.62 2420.5 1650.5Z" stroke="#000000" stroke-width="6.875" stroke-miterlimit="8" fill="#D1D1D1" fill-rule="evenodd"/><path d="M2325.5 1089C2325.5 1071.6 2338.71 1057.5 2355 1057.5 2371.29 1057.5 2384.5 1071.6 2384.5 1089 2384.5 1106.4 2371.29 1120.5 2355 1120.5 2338.71 1120.5 2325.5 1106.4 2325.5 1089Z" stroke="#000000" stroke-width="6.875" stroke-miterlimit="8" fill="#D1D1D1" fill-rule="evenodd"/></g></svg>