<svg width="1679" height="1565" xmlns="http://www.w3.org/2000/svg" xmlns:xlink="http://www.w3.org/1999/xlink" xml:space="preserve" overflow="hidden"><g transform="translate(-1361 -110)"><rect x="1364.5" y="113.5" width="1672" height="1558" stroke="#000000" stroke-width="6.875" stroke-miterlimit="8" fill="#D1D1D1"/><g><g><g><path d="M24.0625 82.5 30.9375 82.5 30.9375 247.5 24.0625 247.5Z" transform="matrix(1 0 0 1.22727 2124 1046)"/><path d="M39.5312 82.5 49.8438 82.5 49.8438 247.5 39.5312 247.5Z" transform="matrix(1 0 0 1.22727 2124 1046)"/><path d="M65.3125 82.5 72.1875 82.5 72.1875 247.5 65.3125 247.5Z" transform="matrix(1 0 0 1.22727 2124 1046)"/><path d="M92.8125 82.5 99.6875 82.5 99.6875 247.5 92.8125 247.5Z" transform="matrix(1 0 0 1.22727 2124 1046)"/><path d="M116.875 82.5 123.75 82.5 123.75 247.5 116.875 247.5Z" transform="matrix(1 0 0 1.22727 2124 1046)"/><path d="M135.781 82.5 146.094 82.5 146.094 247.5 135.781 247.5Z" transform="matrix(1 0 0 1.22727 2124 1046)"/><path d="M180.469 82.5 190.781 82.5 190.781 247.5 180.469 247.5Z" transform="matrix(1 0 0 1.22727 2124 1046)"/><path d="M206.25 82.5 213.125 82.5 213.125 247.5 206.25 247.5Z" transform="matrix(1 0 0 1.22727 2124 1046)"/><path d="M165 82.5 171.875 82.5 171.875 247.5 165 247.5Z" transform="matrix(1 0 0 1.22727 2124 1046)"/><path d="M233.75 82.5 240.625 82.5 240.625 247.5 233.75 247.5Z" transform="matrix(1 0 0 1.22727 2124 1046)"/><path d="M256.094 82.5 266.406 82.5 266.406 247.5 256.094 247.5Z" transform="matrix(1 0 0 1.22727 2124 1046)"/><path d="M299.062 82.5 305.938 82.5 305.938 247.5 299.062 247.5Z" transform="matrix(1 0 0 1.22727 2124 1046)"/><path d="M275 82.5 281.875 82.5 281.875 247.5 275 247.5Z" transform="matrix(1 0 0 1.22727 2124 1046)"/></g></g></g><path d="M2479.68 1074.4 2132.67 1073.9C2123.42 1073.74 2114.48 1077.29 2107.87 1083.77L1993.67 1197.61C1992.12 1199.16 1990.7 1200.76 1989.29 1202.44 1970.74 1194.81 1949.61 1196.89 1932.9 1207.99L1883.14 1241.05C1867.42 1251.58 1846.68 1250.65 1831.95 1238.77L1800.46 1213.5C1796.73 1210.51 1791.28 1211.11 1788.29 1214.84 1785.29 1218.57 1785.89 1224.02 1789.62 1227.01L1821.11 1252.29C1841.7 1268.9 1870.7 1270.21 1892.71 1255.51L1942.46 1222.45C1953.49 1215.12 1967.27 1213.24 1979.85 1217.37 1967.27 1244.07 1972.71 1275.8 1993.48 1296.78L2106.67 1410.34C2113.07 1417.13 2122.13 1420.76 2131.44 1420.29L2478.43 1420.83C2497.71 1421.08 2513.55 1405.66 2513.8 1386.38 2513.81 1386.11 2513.81 1385.84 2513.8 1385.57L2514.32 1109.16C2513.95 1090.16 2498.67 1074.83 2479.68 1074.4ZM2497 1109.12 2496.51 1385.49C2496.72 1395.21 2489.01 1403.26 2479.3 1403.47 2479.03 1403.47 2478.76 1403.47 2478.49 1403.47L2131.52 1402.96 2130.91 1402.95 2130.34 1402.99C2126.01 1403.08 2121.86 1401.29 2118.96 1398.09L2005.76 1284.53C1990.35 1268.96 1986.12 1245.51 1995.12 1225.53L2013.16 1237.59C2012.24 1240.62 2011.75 1243.77 2011.71 1246.93 2011.7 1266.06 2027.2 1281.58 2046.34 1281.59 2065.47 1281.6 2080.99 1266.09 2080.99 1246.96 2081 1227.82 2065.5 1212.31 2046.36 1212.3 2037.18 1212.3 2028.38 1215.94 2021.88 1222.42L2021.79 1222.51 2004.73 1211.1C2005.12 1210.7 2005.46 1210.25 2005.86 1209.86L2120.07 1096.01C2123.43 1092.77 2127.95 1091.04 2132.61 1091.19L2479.6 1091.73C2489.01 1092.16 2496.54 1099.71 2496.94 1109.12ZM2036.79 1232.53C2044.77 1227.11 2055.64 1229.19 2061.05 1237.18 2066.47 1245.16 2064.39 1256.02 2056.41 1261.44 2048.42 1266.86 2037.56 1264.78 2032.14 1256.79 2030.42 1254.26 2029.4 1251.33 2029.18 1248.27L2035.2 1252.31C2038.63 1254.58 2043.18 1254.13 2046.1 1251.23 2046.51 1250.82 2046.88 1250.37 2047.21 1249.89 2049.87 1245.91 2048.8 1240.53 2044.82 1237.88Z" fill-rule="evenodd"/></g></svg>