<svg width="1679" height="1565" xmlns="http://www.w3.org/2000/svg" xmlns:xlink="http://www.w3.org/1999/xlink" xml:space="preserve" overflow="hidden"><g transform="translate(-1361 -110)"><rect x="1364.5" y="113.5" width="1672" height="1558" stroke="#000000" stroke-width="6.875" stroke-miterlimit="8" fill="#FFFFFF"/><g><g><g><path d="M515.338 515.375 455.359 515.375 455.359 509.24C455.359 499.454 447.425 491.521 437.639 491.521 427.853 491.521 419.92 499.454 419.92 509.24L419.92 515.375 383.795 515.375 383.795 509.24C383.795 499.454 375.862 491.521 366.076 491.521 356.29 491.521 348.357 499.454 348.357 509.24L348.357 515.375 312.231 515.375 312.231 509.24C312.231 499.454 304.298 491.521 294.512 491.521 284.726 491.521 276.793 499.454 276.793 509.24L276.793 515.375 240.674 515.375 240.674 509.24C240.856 499.452 233.069 491.37 223.282 491.188 213.494 491.006 205.412 498.792 205.23 508.58 205.225 508.8 205.225 509.02 205.23 509.24L205.23 515.375 169.104 515.375 169.104 509.24C169.287 499.456 161.503 491.376 151.718 491.194 141.934 491.012 133.855 498.796 133.672 508.58 133.668 508.8 133.668 509.02 133.672 509.24L133.672 515.375 73.6864 515.375 73.6864 455.383 79.8218 455.383C89.6115 455.383 97.547 447.447 97.547 437.658 97.547 427.868 89.6115 419.933 79.8218 419.933L73.6864 419.933 73.6864 383.807 79.8218 383.807C89.6115 383.807 97.547 375.872 97.547 366.082 97.547 356.292 89.6115 348.357 79.8218 348.357L73.6864 348.357 73.6864 312.225 79.8218 312.225C89.6115 312.225 97.547 304.29 97.547 294.5 97.547 284.71 89.6115 276.775 79.8218 276.775L73.6864 276.775 73.6864 240.643 79.8218 240.643C89.6115 240.643 97.547 232.708 97.547 222.918 97.547 213.128 89.6115 205.193 79.8218 205.193L73.6864 205.193 73.6864 169.068 79.8218 169.068C89.6115 169.068 97.547 161.132 97.547 151.342 97.547 141.553 89.6115 133.617 79.8218 133.617L73.6864 133.617 73.6864 73.625 133.672 73.625 133.672 79.7604C133.49 89.5446 141.274 97.6243 151.059 97.8059 160.843 97.9882 168.922 90.2042 169.104 80.42 169.109 80.2004 169.109 79.9801 169.104 79.7604L169.104 73.625 205.23 73.625 205.23 79.7604C205.048 89.5483 212.835 97.6305 222.622 97.8121 232.41 97.9943 240.492 90.2078 240.674 80.42 240.678 80.2004 240.678 79.9801 240.674 79.7604L240.674 73.625 276.793 73.625 276.793 79.7604C276.793 89.5464 284.726 97.4795 294.512 97.4795 304.298 97.4795 312.231 89.5464 312.231 79.7604L312.231 73.625 348.357 73.625 348.357 79.7604C348.357 89.5464 356.29 97.4795 366.076 97.4795 375.862 97.4795 383.795 89.5464 383.795 79.7604L383.795 73.625 419.92 73.625 419.92 79.7604C419.92 89.5464 427.853 97.4795 437.639 97.4795 447.425 97.4795 455.359 89.5464 455.359 79.7604L455.359 73.625 515.338 73.625 515.338 133.617 509.203 133.617C499.414 133.617 491.478 141.553 491.478 151.342 491.478 161.132 499.414 169.068 509.203 169.068L515.338 169.068 515.338 205.193 509.203 205.193C499.414 205.193 491.478 213.128 491.478 222.918 491.478 232.708 499.414 240.643 509.203 240.643L515.338 240.643 515.338 276.775 509.203 276.775C499.414 276.775 491.478 284.71 491.478 294.5 491.478 304.29 499.414 312.225 509.203 312.225L515.338 312.225 515.338 348.357 509.203 348.357C499.414 348.357 491.478 356.292 491.478 366.082 491.478 375.872 499.414 383.807 509.203 383.807L515.338 383.807 515.338 419.933 509.203 419.933C499.414 419.933 491.478 427.868 491.478 437.658 491.478 447.447 499.414 455.383 509.203 455.383L515.338 455.383ZM466.997 503.104 503.068 503.104 503.068 467.022C486.85 463.623 476.459 447.721 479.858 431.503 482.302 419.845 491.41 410.737 503.068 408.294L503.068 395.446C486.85 392.047 476.459 376.145 479.858 359.928 482.302 348.27 491.41 339.162 503.068 336.718L503.068 323.864C486.85 320.465 476.459 304.563 479.858 288.346 482.302 276.688 491.41 267.58 503.068 265.136L503.068 252.282C486.85 248.883 476.459 232.981 479.858 216.764 482.302 205.106 491.41 195.998 503.068 193.554L503.068 180.706C486.85 177.307 476.459 161.405 479.858 145.188 482.302 133.53 491.41 124.422 503.068 121.978L503.068 85.8959 466.997 85.8959C463.615 102.11 447.729 112.512 431.515 109.129 419.839 106.694 410.717 97.5716 408.281 85.8959L395.434 85.8959C392.051 102.11 376.166 112.512 359.952 109.129 348.276 106.694 339.154 97.5716 336.718 85.8959L323.876 85.8959C320.486 102.112 304.592 112.508 288.376 109.117 276.709 106.678 267.594 97.5624 265.154 85.8959L252.313 85.8959C248.923 102.112 233.028 112.508 216.812 109.117 205.146 106.678 196.03 97.5624 193.591 85.8959L180.743 85.8959C177.353 102.108 161.462 112.502 145.249 109.112 133.586 106.673 124.473 97.5599 122.033 85.8959L85.9572 85.8959 85.9572 121.978C102.174 125.377 112.566 141.28 109.167 157.497 106.723 169.155 97.6151 178.263 85.9572 180.706L85.9572 193.554C102.174 196.953 112.566 212.855 109.167 229.073 106.723 240.731 97.6151 249.839 85.9572 252.282L85.9572 265.136C102.174 268.535 112.566 284.437 109.167 300.655 106.723 312.312 97.6151 321.42 85.9572 323.864L85.9572 336.718C102.174 340.117 112.566 356.019 109.167 372.236 106.723 383.894 97.6151 393.002 85.9572 395.446L85.9572 408.294C102.174 411.693 112.566 427.595 109.167 443.812 106.723 455.47 97.6151 464.578 85.9572 467.022L85.9572 503.104 122.033 503.104C125.424 486.892 141.315 476.498 157.527 479.888 169.191 482.327 178.304 491.44 180.743 503.104L193.591 503.104C196.981 486.888 212.876 476.492 229.092 479.883 240.758 482.322 249.874 491.438 252.313 503.104L265.154 503.104C268.545 486.888 284.439 476.492 300.655 479.883 312.322 482.322 321.437 491.438 323.876 503.104L336.718 503.104C340.1 486.89 355.986 476.488 372.2 479.871 383.876 482.306 392.998 491.429 395.434 503.104L408.281 503.104C411.664 486.89 427.55 476.488 443.764 479.871 455.439 482.306 464.562 491.429 466.997 503.104Z" transform="matrix(1.0017 0 0 1 1905 943)"/><path d="M460.156 460.156 128.844 460.156 128.844 128.844 460.156 128.844ZM141.115 447.886 447.886 447.886 447.886 141.115 141.115 141.115Z" transform="matrix(1.0017 0 0 1 1905 943)"/></g></g></g></g></svg>