<svg width="1679" height="1565" xmlns="http://www.w3.org/2000/svg" xmlns:xlink="http://www.w3.org/1999/xlink" xml:space="preserve" overflow="hidden"><g transform="translate(-1361 -110)"><rect x="1364.5" y="113.5" width="1672" height="1558" stroke="#000000" stroke-width="6.875" stroke-miterlimit="8" fill="#D1D1D1"/><path d="M1996 1155.89 1996 1033.49 2035.05 1072.54C2074.1 1037.57 2125.98 1016 2182.51 1016 2304.91 1016 2404 1115.09 2404 1237.5 2404 1359.91 2304.91 1459 2182.51 1459 2121.31 1459 2065.94 1433.94 2025.73 1394.3L2075.27 1344.75C2102.66 1372.15 2140.55 1389.05 2182.51 1389.05 2265.86 1389.05 2334.06 1320.85 2334.06 1237.5 2334.06 1154.15 2265.86 1085.95 2182.51 1085.95 2145.21 1085.95 2110.82 1099.35 2084.59 1122.09L2118.4 1155.89 1996 1155.89Z" stroke="#000000" stroke-width="13.75" stroke-miterlimit="8" fill="none" fill-rule="evenodd"/></g></svg>