<svg width="2212" height="946" xmlns="http://www.w3.org/2000/svg" xmlns:xlink="http://www.w3.org/1999/xlink" xml:space="preserve" overflow="hidden"><g transform="translate(-1699 -223)"><rect x="1702.5" y="226.5" width="2200" height="939" stroke="#000000" stroke-width="6.875" stroke-miterlimit="8" fill="#FFFFFF"/><path d="M1783.5 723C1783.5 705.603 1796.71 691.5 1813 691.5 1829.29 691.5 1842.5 705.603 1842.5 723 1842.5 740.397 1829.29 754.5 1813 754.5 1796.71 754.5 1783.5 740.397 1783.5 723Z" stroke="#000000" stroke-width="6.875" stroke-miterlimit="8" fill="none" fill-rule="evenodd"/><path d="M1847.5 723C1847.5 705.603 1860.71 691.5 1877 691.5 1893.29 691.5 1906.5 705.603 1906.5 723 1906.5 740.397 1893.29 754.5 1877 754.5 1860.71 754.5 1847.5 740.397 1847.5 723Z" stroke="#000000" stroke-width="6.875" stroke-miterlimit="8" fill="none" fill-rule="evenodd"/><path d="M1910.5 723C1910.5 705.603 1923.71 691.5 1940 691.5 1956.29 691.5 1969.5 705.603 1969.5 723 1969.5 740.397 1956.29 754.5 1940 754.5 1923.71 754.5 1910.5 740.397 1910.5 723Z" stroke="#000000" stroke-width="6.875" stroke-miterlimit="8" fill="none" fill-rule="evenodd"/><path d="M1910.5 790C1910.5 772.603 1923.71 758.5 1940 758.5 1956.29 758.5 1969.5 772.603 1969.5 790 1969.5 807.397 1956.29 821.5 1940 821.5 1923.71 821.5 1910.5 807.397 1910.5 790Z" stroke="#000000" stroke-width="6.875" stroke-miterlimit="8" fill="none" fill-rule="evenodd"/><path d="M1847.5 789.5C1847.5 772.379 1860.71 758.5 1877 758.5 1893.29 758.5 1906.5 772.379 1906.5 789.5 1906.5 806.621 1893.29 820.5 1877 820.5 1860.71 820.5 1847.5 806.621 1847.5 789.5Z" stroke="#000000" stroke-width="6.875" stroke-miterlimit="8" fill="none" fill-rule="evenodd"/><path d="M1783.5 790C1783.5 772.603 1796.71 758.5 1813 758.5 1829.29 758.5 1842.5 772.603 1842.5 790 1842.5 807.397 1829.29 821.5 1813 821.5 1796.71 821.5 1783.5 807.397 1783.5 790Z" stroke="#000000" stroke-width="6.875" stroke-miterlimit="8" fill="none" fill-rule="evenodd"/><path d="M1783.5 856.5C1783.5 839.379 1796.71 825.5 1813 825.5 1829.29 825.5 1842.5 839.379 1842.5 856.5 1842.5 873.621 1829.29 887.5 1813 887.5 1796.71 887.5 1783.5 873.621 1783.5 856.5Z" stroke="#000000" stroke-width="6.875" stroke-miterlimit="8" fill="none" fill-rule="evenodd"/><path d="M1847.5 856.5C1847.5 839.379 1860.71 825.5 1877 825.5 1893.29 825.5 1906.5 839.379 1906.5 856.5 1906.5 873.621 1893.29 887.5 1877 887.5 1860.71 887.5 1847.5 873.621 1847.5 856.5Z" stroke="#000000" stroke-width="6.875" stroke-miterlimit="8" fill="none" fill-rule="evenodd"/><path d="M1910.5 856.5C1910.5 839.379 1923.71 825.5 1940 825.5 1956.29 825.5 1969.5 839.379 1969.5 856.5 1969.5 873.621 1956.29 887.5 1940 887.5 1923.71 887.5 1910.5 873.621 1910.5 856.5Z" stroke="#000000" stroke-width="6.875" stroke-miterlimit="8" fill="none" fill-rule="evenodd"/><path d="M1910.5 923.5C1910.5 906.379 1923.71 892.5 1940 892.5 1956.29 892.5 1969.5 906.379 1969.5 923.5 1969.5 940.621 1956.29 954.5 1940 954.5 1923.71 954.5 1910.5 940.621 1910.5 923.5Z" stroke="#000000" stroke-width="6.875" stroke-miterlimit="8" fill="none" fill-rule="evenodd"/><path d="M1847.5 923C1847.5 905.603 1860.71 891.5 1877 891.5 1893.29 891.5 1906.5 905.603 1906.5 923 1906.5 940.397 1893.29 954.5 1877 954.5 1860.71 954.5 1847.5 940.397 1847.5 923Z" stroke="#000000" stroke-width="6.875" stroke-miterlimit="8" fill="none" fill-rule="evenodd"/><path d="M1783.5 923.5C1783.5 906.379 1796.71 892.5 1813 892.5 1829.29 892.5 1842.5 906.379 1842.5 923.5 1842.5 940.621 1829.29 954.5 1813 954.5 1796.71 954.5 1783.5 940.621 1783.5 923.5Z" stroke="#000000" stroke-width="6.875" stroke-miterlimit="8" fill="none" fill-rule="evenodd"/><path d="M0 0 285.082 66.4147" stroke="#000000" stroke-width="6.875" stroke-miterlimit="8" fill="none" fill-rule="evenodd" transform="matrix(1 0 0 -1 2464.5 952.915)"/><path d="M1783.5 954.5 2465.33 954.5" stroke="#000000" stroke-width="6.875" stroke-miterlimit="8" fill="none" fill-rule="evenodd"/><path d="M1783.5 691.5 2009.52 691.5" stroke="#000000" stroke-width="6.875" stroke-miterlimit="8" fill="none" fill-rule="evenodd"/><path d="M2009.5 691.5 2465.31 890.214" stroke="#000000" stroke-width="6.875" stroke-miterlimit="8" fill="none" fill-rule="evenodd"/><path d="M0 0 285.082 66.4147" stroke="#000000" stroke-width="6.875" stroke-miterlimit="8" fill="none" fill-rule="evenodd" transform="matrix(1 0 0 -1 2461.5 890.915)"/><path d="M2749.5 953.5 3338.35 953.5" stroke="#000000" stroke-width="6.875" stroke-miterlimit="8" fill="none" fill-rule="evenodd"/><path d="M2751.5 886.5 3352.55 886.5" stroke="#000000" stroke-width="6.875" stroke-miterlimit="8" fill="none" fill-rule="evenodd"/><path d="M2751.5 825.5 2882.55 825.5" stroke="#000000" stroke-width="6.875" stroke-miterlimit="8" fill="none" fill-rule="evenodd"/><path d="M0 0 148.362 74.8653" stroke="#000000" stroke-width="6.875" stroke-miterlimit="8" fill="none" fill-rule="evenodd" transform="matrix(1 0 0 -1 2882.5 824.365)"/><path d="M0 0 215.519 111.163" stroke="#000000" stroke-width="6.875" stroke-miterlimit="8" fill="none" fill-rule="evenodd" transform="matrix(1 0 0 -1 2888.5 885.663)"/><path d="M3032.05 750.357 3031.5 602.5" stroke="#000000" stroke-width="6.875" stroke-miterlimit="8" fill="none" fill-rule="evenodd"/><path d="M0 0 0.000360892 104.04" stroke="#000000" stroke-width="6.875" stroke-miterlimit="8" fill="none" fill-rule="evenodd" transform="matrix(1 0 0 -1 3103.5 776.54)"/><path d="M0 0 148.362 74.8653" stroke="#000000" stroke-width="6.875" stroke-miterlimit="8" fill="none" fill-rule="evenodd" transform="matrix(1 0 0 -1 3347.5 890.365)"/><path d="M0 0 230.055 112.517" stroke="#000000" stroke-width="6.875" stroke-miterlimit="8" fill="none" fill-rule="evenodd" transform="matrix(1 0 0 -1 3338.5 953.017)"/><path d="M0 0 0.000360892 140.77" stroke="#000000" stroke-width="6.875" stroke-miterlimit="8" fill="none" fill-rule="evenodd" transform="matrix(1 0 0 -1 3496.5 813.27)"/><path d="M0 0 0.000360892 169.945" stroke="#000000" stroke-width="6.875" stroke-miterlimit="8" fill="none" fill-rule="evenodd" transform="matrix(1 0 0 -1 3568.5 842.444)"/><path d="M3099.5 672.5 3499.97 672.5" stroke="#000000" stroke-width="6.875" stroke-miterlimit="8" fill="none" fill-rule="evenodd"/><path d="M3031.5 606.5 3902.93 606.5" stroke="#000000" stroke-width="6.875" stroke-miterlimit="8" fill="none" fill-rule="evenodd"/><path d="M3564.5 672.5 3906.79 672.5" stroke="#000000" stroke-width="6.875" stroke-miterlimit="8" fill="none" fill-rule="evenodd"/><rect x="1783.5" y="278.5" width="1870" height="196" stroke="#000000" stroke-width="6.875" stroke-miterlimit="8" fill="none"/></g></svg>