<svg width="202" height="111" xmlns="http://www.w3.org/2000/svg" xmlns:xlink="http://www.w3.org/1999/xlink" xml:space="preserve" overflow="hidden"><g transform="translate(-2453 -1321)"><path d="M2456.5 1372.1C2456.5 1345.81 2477.81 1324.5 2504.1 1324.5L2603.9 1324.5C2630.19 1324.5 2651.5 1345.81 2651.5 1372.1L2651.5 1380.9C2651.5 1407.19 2630.19 1428.5 2603.9 1428.5L2504.1 1428.5C2477.81 1428.5 2456.5 1407.19 2456.5 1380.9Z" stroke="#000000" stroke-width="6.875" stroke-miterlimit="8" fill="#FFFFFF" fill-rule="evenodd"/><path d="M2459.5 1376.5C2459.5 1349.44 2481.21 1327.5 2508 1327.5 2534.79 1327.5 2556.5 1349.44 2556.5 1376.5 2556.5 1403.56 2534.79 1425.5 2508 1425.5 2481.21 1425.5 2459.5 1403.56 2459.5 1376.5Z" stroke="#042433" stroke-width="6.875" stroke-miterlimit="8" fill-rule="evenodd"/></g></svg>