<svg width="962" height="828" xmlns="http://www.w3.org/2000/svg" xmlns:xlink="http://www.w3.org/1999/xlink" xml:space="preserve" overflow="hidden"><g transform="translate(-281 -1548)"><path d="M1012.5 1820.5C1012.5 1960.78 898.78 2074.5 758.501 2074.5 618.22 2074.5 504.5 1960.78 504.5 1820.5 504.5 1680.22 618.22 1566.5 758.501 1566.5 898.78 1566.5 1012.5 1680.22 1012.5 1820.5Z" stroke="#000000" stroke-width="36.6667" stroke-miterlimit="8" fill="none" fill-rule="evenodd"/><path d="M299.5 2331.17C299.5 2214.82 506.568 2120.5 762 2120.5 1017.43 2120.5 1224.5 2214.82 1224.5 2331.17 1147.42 2366.28 376.583 2366.28 299.5 2331.17Z" stroke="#000000" stroke-width="36.6667" stroke-miterlimit="8" fill="none" fill-rule="evenodd"/><path d="M238.563 96.8332 264.193 122.524 289.824 96.8332 315.455 122.524 347 82.9998 315.455 43.476 155.756 43.476C141.56 17.3904 114.352 0 82.8068 0 37.0659 0 0 37.1523 0 82.9998 0 128.847 37.0659 166 82.8068 166 114.352 166 141.56 148.609 155.756 122.524L181.387 122.524 197.159 106.714 212.932 122.524 238.563 96.8332ZM47.3183 106.714C34.3058 106.714 23.659 96.0427 23.659 82.9998 23.659 69.957 34.3058 59.2857 47.3183 59.2857 60.3308 59.2857 70.9773 69.957 70.9773 82.9998 70.9773 96.0427 60.3308 106.714 47.3183 106.714Z" stroke="#000000" stroke-width="20.625" stroke-miterlimit="8" fill="none" fill-rule="evenodd" transform="matrix(-1 0 0 1 893.5 2155.5)"/></g></svg>