<svg width="1679" height="1565" xmlns="http://www.w3.org/2000/svg" xmlns:xlink="http://www.w3.org/1999/xlink" xml:space="preserve" overflow="hidden"><g transform="translate(-1361 -110)"><rect x="1364.5" y="113.5" width="1672" height="1558" stroke="#000000" stroke-width="6.875" stroke-miterlimit="8" fill="#FFFFFF"/><path d="M2605.02 1100 2415.51 1305.83 2324.46 1198.66 2293 1233.11 2414.03 1376 2445.86 1341.98 2635 1135.72Z" stroke="#000000" stroke-width="27.5" stroke-miterlimit="8" fill="none" fill-rule="evenodd"/><path d="M2272 1479 1847 1479 1932 1155 2187 1155Z" stroke="#000000" stroke-width="27.5" stroke-miterlimit="8" fill="none" fill-rule="evenodd"/><path d="M1965 1077.5C1965 1027.52 2005.52 987 2055.5 987 2105.48 987 2146 1027.52 2146 1077.5 2146 1127.48 2105.48 1168 2055.5 1168 2005.52 1168 1965 1127.48 1965 1077.5ZM1992.18 1077.5C1992.18 1112.47 2020.53 1140.82 2055.5 1140.82 2090.47 1140.82 2118.82 1112.47 2118.82 1077.5 2118.82 1042.53 2090.47 1014.18 2055.5 1014.18 2020.53 1014.18 1992.18 1042.53 1992.18 1077.5Z" fill-rule="evenodd"/></g></svg>