<svg width="2358" height="1440" xmlns="http://www.w3.org/2000/svg" xmlns:xlink="http://www.w3.org/1999/xlink" xml:space="preserve" overflow="hidden"><g transform="translate(-811 -517)"><path d="M1855 592.469C1855 558.521 1882.52 531 1916.47 531L2380.53 531C2414.48 531 2442 558.521 2442 592.469L2442 789.531C2442 823.48 2414.48 851 2380.53 851L1916.47 851C1882.52 851 1855 823.48 1855 789.531Z" stroke="#000000" stroke-width="27.5" stroke-miterlimit="8" fill="#FFFFFF" fill-rule="evenodd"/><path d="M825 1187.93C825 1170.85 838.846 1157 855.926 1157L1246.07 1157C1263.15 1157 1277 1170.85 1277 1187.93L1277 1287.07C1277 1304.15 1263.15 1318 1246.07 1318L855.926 1318C838.846 1318 825 1304.15 825 1287.07Z" stroke="#000000" stroke-width="27.5" stroke-miterlimit="8" fill="#FFFFFF" fill-rule="evenodd"/><path d="M1005 1139.89C1005 1106.26 1032.26 1079 1065.89 1079L1397.11 1079C1430.74 1079 1458 1106.26 1458 1139.89L1458 1335.11C1458 1368.74 1430.74 1396 1397.11 1396L1065.89 1396C1032.26 1396 1005 1368.74 1005 1335.11Z" stroke="#000000" stroke-width="27.5" stroke-miterlimit="8" fill="#FFFFFF" fill-rule="evenodd"/><path d="M1137 877.554C1137 753.536 1237.54 653 1361.55 653L2930.45 653C3054.46 653 3155 753.536 3155 877.554L3155 1597.45C3155 1721.46 3054.46 1822 2930.45 1822L1361.55 1822C1237.54 1822 1137 1721.46 1137 1597.45Z" stroke="#000000" stroke-width="27.5" stroke-miterlimit="8" fill="#FFFFFF" fill-rule="evenodd"/><rect x="1377" y="1761" width="1538" height="182" stroke="#000000" stroke-width="27.5" stroke-miterlimit="8"/><path d="M2948 653 2948 1821.2" stroke="#000000" stroke-width="27.5" stroke-miterlimit="8" fill="none" fill-rule="evenodd"/><path d="M1349 653 1349 1821.2" stroke="#000000" stroke-width="27.5" stroke-miterlimit="8" fill="none" fill-rule="evenodd"/><path d="M0 0 1251.25 0.000360892" stroke="#000000" stroke-width="27.5" stroke-miterlimit="8" fill="none" fill-rule="evenodd" transform="matrix(-1 0 0 1 2771.25 1617)"/><path d="M0 0 1251.25 0.000360892" stroke="#000000" stroke-width="27.5" stroke-miterlimit="8" fill="none" fill-rule="evenodd" transform="matrix(-1 0 0 1 2771.25 1345)"/><path d="M0 0 1251.25 0.000360892" stroke="#000000" stroke-width="27.5" stroke-miterlimit="8" fill="none" fill-rule="evenodd" transform="matrix(-1 0 0 1 2771.25 1070)"/><path d="M0 0 1251.25 0.000360892" stroke="#000000" stroke-width="27.5" stroke-miterlimit="8" fill="none" fill-rule="evenodd" transform="matrix(-1 0 0 1 2771.25 814)"/></g></svg>